HIERARCHY
ROOT Hips
{
	OFFSET	0.00	0.00	0.00
	CHANNELS 6 Xposition Yposition Zposition Zrotation Xrotation Yrotation
	JOINT LeftUpLeg
	{
		OFFSET	 0.126116	-0.014019	-0.065224
		CHANNELS 3 Zrotation Xrotation Yrotation
		JOINT LeftLeg
		{
			OFFSET	 0.000000	 0.000000	 0.569914
			CHANNELS 3 Zrotation Xrotation Yrotation
			JOINT LeftFoot
			{
				OFFSET	 0.000000	 0.000000	 0.544423
				CHANNELS 3 Zrotation Xrotation Yrotation
				JOINT LeftToeBase
				{
					OFFSET	 0.000000	 0.000000	 0.207117
					CHANNELS 3 Zrotation Xrotation Yrotation
					End Site
					{
						OFFSET	 0.000000	 0.000000	 0.207117
					}
				}
			}
		}
	}
	JOINT RightUpLeg
	{
		OFFSET	-0.124023	-0.008373	-0.065224
		CHANNELS 3 Zrotation Xrotation Yrotation
		JOINT RightLeg
		{
			OFFSET	 0.000000	 0.000000	 0.570047
			CHANNELS 3 Zrotation Xrotation Yrotation
			JOINT RightFoot
			{
				OFFSET	 0.000000	 0.000000	 0.544354
				CHANNELS 3 Zrotation Xrotation Yrotation
				JOINT RightToeBase
				{
					OFFSET	 0.000000	 0.000000	 0.207540
					CHANNELS 3 Zrotation Xrotation Yrotation
					End Site
					{
						OFFSET	 0.000000	 0.000000	 0.207540
					}
				}
			}
		}
	}
	JOINT Spine
	{
		OFFSET	 0.000184	-0.007763	 0.117403
		CHANNELS 3 Zrotation Xrotation Yrotation
		JOINT Spine1
		{
			OFFSET	 0.000000	 0.000000	 0.137269
			CHANNELS 3 Zrotation Xrotation Yrotation
			JOINT Spine2
			{
				OFFSET	 0.000000	 0.000000	 0.156879
				CHANNELS 3 Zrotation Xrotation Yrotation
				JOINT LeftShoulder
				{
					OFFSET	 0.080501	-0.002496	 0.160144
					CHANNELS 3 Zrotation Xrotation Yrotation
					JOINT LeftArm
					{
						OFFSET	 0.000000	 0.000000	 0.164363
						CHANNELS 3 Zrotation Xrotation Yrotation
						JOINT LeftForeArm
						{
							OFFSET	 0.000000	 0.000000	 0.364576
							CHANNELS 3 Zrotation Xrotation Yrotation
							JOINT LeftHand
							{
								OFFSET	 0.000000	 0.000000	 0.360812
								CHANNELS 3 Zrotation Xrotation Yrotation
								JOINT LeftHandIndex1
								{
									OFFSET	 0.000000	 0.000000	 0.086006
									CHANNELS 3 Zrotation Xrotation Yrotation
									JOINT LeftHandIndex2
									{
										OFFSET	 0.000000	 0.000000	 0.047236
										CHANNELS 3 Zrotation Xrotation Yrotation
										JOINT LeftHandIndex3
										{
											OFFSET	-0.004284	-0.000551	 0.038166
											CHANNELS 3 Zrotation Xrotation Yrotation
											End Site
											{
												OFFSET	-0.004284	-0.000551	 0.038166
											}
										}
									}
								}
							}
						}
					}
				}
				JOINT Neck
				{
					OFFSET	 0.000000	 0.000000	 0.176489
					CHANNELS 3 Zrotation Xrotation Yrotation
					JOINT Head
					{
						OFFSET	 0.000000	-0.001747	 0.077940
						CHANNELS 3 Zrotation Xrotation Yrotation
						End Site
						{
							OFFSET	 0.000000	-0.001747	 0.077940
						}
					}
				}
				JOINT RightShoulder
				{
					OFFSET	-0.080363	 0.000306	 0.159706
					CHANNELS 3 Zrotation Xrotation Yrotation
					JOINT RightArm
					{
						OFFSET	 0.000000	 0.000000	 0.164196
						CHANNELS 3 Zrotation Xrotation Yrotation
						JOINT RightForeArm
						{
							OFFSET	 0.000000	 0.000000	 0.365611
							CHANNELS 3 Zrotation Xrotation Yrotation
							JOINT RightHand
							{
								OFFSET	 0.000000	 0.000000	 0.360648
								CHANNELS 3 Zrotation Xrotation Yrotation
								JOINT RightHandIndex1
								{
									OFFSET	 0.000000	 0.000000	 0.069977
									CHANNELS 3 Zrotation Xrotation Yrotation
									JOINT RightHandIndex2
									{
										OFFSET	 0.000000	 0.000000	 0.052305
										CHANNELS 3 Zrotation Xrotation Yrotation
										JOINT RightHandIndex3
										{
											OFFSET	 0.009002	-0.000782	 0.042196
											CHANNELS 3 Zrotation Xrotation Yrotation
											End Site
											{
												OFFSET	 0.009002	-0.000782	 0.042196
											}
										}
									}
								}
							}
						}
					}
				}
			}
		}
	}
}
MOTION
Frames:    8
Frame Time: 0.03333334
 2.541069	 6.715851	-1.260619	-77.898990	-1.903564	-0.314301	 6.137292	 0.179478	-177.826300	-2.866004	-33.532090	 1.005161	 63.500710	 89.965740	-62.812500	-2.376501	 30.363870	-0.041862	 1.868692	-31.583240	 179.645100	 16.276570	-68.543670	 19.535630	-177.725700	 88.785980	-174.745900	 2.377772	 29.833120	 0.031554	 25.420760	 4.315257	 1.751236	-1.425847	-2.002465	 0.995229	-0.281718	-4.746102	-0.030219	-91.782520	 78.403000	 178.830900	 35.329110	 62.750500	-48.233140	-30.831690	 16.546390	-41.951840	 3.770400	-2.106925	-5.366852	-3.812334	 37.924440	-2.927599	-2.450526	 36.184240	 0.754587	-1.378229	 35.397820	-2.634230	-0.342260	 4.114676	-2.187978	 0.455944	-12.050010	-1.297775	 89.787080	 78.426640	 179.482000	-41.706770	 71.439000	 43.232600	 24.941250	 11.978250	 39.367320	-12.891440	-3.203490	 9.590321	 6.437017	 35.671460	-0.771858	 2.830251	 35.756010	-7.813440	-2.350882	 35.473990	 5.254307
 2.478205	 6.699055	-1.263368	-77.658840	-1.373136	-0.815501	 6.089499	 6.083089	-177.013200	-3.431725	-27.048750	 1.004192	 9.289914	 89.301990	-8.544918	-2.370672	 31.401230	-0.065089	 2.197406	-34.285910	 179.749700	 10.489690	-58.530040	 12.939120	-164.163900	 89.301150	 172.153600	 2.382720	 28.817640	 0.009300	 28.448410	 4.117181	 2.352400	-1.548787	-2.104333	 0.946633	-0.322808	-4.833801	-0.034871	-91.762050	 78.783270	 178.756900	 34.721190	 61.343770	-49.558860	-28.519060	 14.887250	-43.068840	 3.643871	-2.119571	-5.364820	-3.812334	 37.924440	-2.927599	-2.450526	 36.184240	 0.754587	-1.378229	 35.397820	-2.634230	-0.359279	 4.301332	-2.683325	 0.539758	-12.407820	-1.184202	 89.778510	 78.049450	 179.447100	-41.579020	 71.653940	 42.466070	 23.248900	 10.089000	 39.330540	-12.666670	-3.197933	 9.593687	 6.437017	 35.671460	-0.771858	 2.830251	 35.756010	-7.813440	-2.350882	 35.473990	 5.254307
 2.410721	 6.682160	-1.265976	-77.440100	-0.760583	-1.085697	 7.822730	 15.431570	-176.766700	-4.000709	-13.723150	 1.510527	 3.491829	 84.901110	-0.369959	-2.353611	 33.990210	-0.124813	 2.776110	-35.497890	 179.719000	 6.861636	-47.897240	 8.654000	-145.322800	 89.591220	 153.449800	 2.387779	 27.654900	-0.015798	 31.264850	 3.721874	 2.647717	-1.496660	-2.258459	 0.978722	-0.253554	-4.861047	-0.027452	-91.753940	 78.923130	 178.744000	 34.326560	 60.468910	-50.580360	-26.580410	 12.798880	-43.071720	 3.521448	-2.112288	-5.366250	-3.812334	 37.924440	-2.927599	-2.450526	 36.184240	 0.754587	-1.378229	 35.397820	-2.634230	-0.227695	 4.406190	-3.054552	 0.646432	-12.547670	-1.114563	 89.775420	 77.911140	 179.456500	-41.394740	 72.002000	 42.094460	 21.602760	 7.765562	 37.897690	-12.805780	-3.203314	 9.590509	 6.437017	 35.671460	-0.771858	 2.830251	 35.756010	-7.813440	-2.350882	 35.473990	 5.254307
 2.342233	 6.667744	-1.269148	-76.935730	-0.833270	-1.292359	 8.287105	 20.016640	-177.188000	-3.839376	-11.615430	 1.603728	 3.858071	 84.137390	 0.143306	-2.316654	 38.263600	-0.230020	 3.263102	-35.738920	 179.759400	 3.765789	-39.880910	 5.521513	-167.882200	 89.252180	 175.048100	 2.374209	 30.507200	 0.046508	 33.559750	 3.680037	 2.681208	-1.477998	-2.328341	 1.019630	-0.136945	-4.832548	-0.014793	-91.754540	 78.902980	 178.709400	 34.658010	 60.267770	-51.841100	-24.793650	 10.251460	-41.791860	 3.576073	-2.115381	-5.365617	-3.812334	 37.924440	-2.927599	-2.450526	 36.184240	 0.754587	-1.378229	 35.397820	-2.634230	-0.113681	 4.294190	-3.246019	 0.811215	-12.356820	-0.859939	 89.774800	 77.927220	 179.371600	-41.048910	 72.495070	 41.890240	 19.768380	 5.156385	 35.104980	-13.331950	-3.219130	 9.580599	 6.437017	 35.671460	-0.771858	 2.830251	 35.756010	-7.813440	-2.350882	 35.473990	 5.254307
 2.267248	 6.653825	-1.271624	-76.275670	-0.965803	-1.251760	 8.486053	 23.743080	-178.536100	-2.760428	-11.590800	 1.774917	 5.013887	 82.853030	-0.111536	-2.265950	 42.588470	-0.347328	 3.073099	-34.732850	 179.454600	 2.977796	-37.320180	 4.581342	 176.557400	 89.260600	-169.950100	 2.369013	 31.419850	 0.067008	 35.223370	 3.712014	 2.328968	-1.519722	-2.261616	 0.956253	-0.071392	-4.718923	-0.007641	-91.761970	 78.765390	 178.656200	 35.666520	 60.793520	-52.851560	-22.984770	 7.447643	-39.154310	 3.848020	-2.103335	-5.367434	-3.812334	 37.924440	-2.927599	-2.450526	 36.184240	 0.754587	-1.378229	 35.397820	-2.634230	-0.108455	 4.164663	-3.233800	 0.924349	-11.988390	-0.402470	 89.777960	 78.064980	 179.296100	-39.858460	 73.150050	 40.645930	 17.768930	 2.712311	 31.940570	-13.938350	-3.241260	 9.565865	 6.437017	 35.671460	-0.771858	 2.830251	 35.756010	-7.813440	-2.350882	 35.473990	 5.254307
 2.179111	 6.639493	-1.274611	-75.653030	-1.254866	-1.045574	 9.107934	 27.626500	 179.405600	-1.506012	-11.558000	 1.979743	 5.774748	 78.624800	 0.410626	-2.177810	 48.016850	-0.516033	 2.578790	-32.974520	 178.651000	 5.132832	-39.708050	 6.054866	 6.830571	 88.409590	 0.849680	 2.382180	 28.934480	 0.011849	 36.544810	 3.054099	 1.914033	-1.431494	-2.089176	 0.778669	 0.038669	-4.416719	 0.004038	-91.765430	 78.698100	 178.583700	 37.009910	 62.104520	-52.839360	-20.957390	 4.542707	-35.189460	 4.175065	-2.103226	-5.367042	-3.812334	 37.924440	-2.927599	-2.450526	 36.184240	 0.754587	-1.378229	 35.397820	-2.634230	-0.026305	 4.336459	-3.265684	 1.043006	-11.541060	 0.317662	 89.780590	 78.147000	 179.359700	-37.627130	 73.783230	 37.784850	 15.242070	 0.448709	 28.468710	-14.514430	-3.268227	 9.546821	 6.437017	 35.671460	-0.771858	 2.830251	 35.756010	-7.813440	-2.350882	 35.473990	 5.254307
 2.084453	 6.623841	-1.274489	-74.781250	-1.980571	-0.800965	 9.997956	 31.104590	 177.131300	-1.506934	-11.303580	 1.918912	 5.274635	 69.099130	 1.406530	-2.118645	 50.813390	-0.615541	 1.668025	-30.790190	 177.605500	 7.101170	-43.862770	 7.532621	 6.328242	 84.985310	 1.579175	 2.395878	 25.386600	-0.063717	 37.251880	 2.615999	 1.294917	-1.301262	-1.858178	 0.610523	 0.228816	-3.994683	 0.023057	-91.777390	 78.508200	 178.531300	 38.278320	 64.201510	-51.513540	-18.558240	 1.847852	-30.929720	 4.661708	-2.130895	-5.360447	-3.812334	 37.924440	-2.927599	-2.450526	 36.184240	 0.754587	-1.378229	 35.397820	-2.634230	 0.111303	 4.510875	-3.098019	 1.207354	-10.851340	 0.878999	 89.785980	 78.345890	 179.366100	-35.104260	 74.141200	 34.487390	 12.288360	-1.466942	 25.005480	-14.885900	-3.301659	 9.523933	 6.437017	 35.671460	-0.771858	 2.830251	 35.756010	-7.813440	-2.350882	 35.473990	 5.254307
 1.994169	 6.615478	-1.265710	-73.777960	-2.535421	-1.403712	 7.546712	 18.653990	 175.806400	-0.878890	-38.931560	 1.822054	 2.915398	 62.707450	 0.409482	-2.202143	 46.699990	-0.472440	 1.115076	-27.402550	 177.428500	 7.388904	-46.801720	 7.838691	 6.129938	 85.102550	 1.228887	 2.406178	 20.348810	-0.166170	 37.442050	 2.326580	 1.790498	-1.237555	-1.699038	 0.713800	 0.374663	-3.563574	 0.036354	-91.765810	 78.683470	 178.492400	 37.675020	 66.989690	-47.905000	-15.859510	-0.734371	-26.434010	 5.531630	-2.168731	-5.348904	-3.812334	 37.924440	-2.927599	-2.450526	 36.184240	 0.754587	-1.378229	 35.397820	-2.634230	 0.229068	 4.186109	-3.399209	 1.372690	-9.626799	 1.065504	 89.781150	 78.169780	 179.336200	-33.855240	 74.075660	 33.013240	 8.447852	-3.263581	 21.763370	-15.271490	-3.328432	 9.503013	 6.437017	 35.671460	-0.771858	 2.830251	 35.756010	-7.813440	-2.350882	 35.473990	 5.254307
